<?xml version="1.0" encoding="utf-8"?>
<!-- Generator: Adobe Illustrator 23.0.0, SVG Export Plug-In . SVG Version: 6.00 Build 0)  -->
<svg version="1.1" xmlns="http://www.w3.org/2000/svg" xmlns:xlink="http://www.w3.org/1999/xlink" x="0px" y="0px"
	 viewBox="0 0 307.6 303.2" style="enable-background:new 0 0 307.6 303.2;" xml:space="preserve">
<style type="text/css">
	.st0{display:none;}
	.st1{display:inline;fill:#071521;}
	.st2{display:inline;}
	.st3{fill:#FFFFFF;}
	.st4{clip-path:url(#SVGID_2_);fill:#E82525;}
	.st5{clip-path:url(#SVGID_2_);}
	.st6{fill:#FF6700;}
	.st7{fill:#FFA300;}
	.st8{fill:#FFE000;}
</style>
<g id="Layer_1" class="st0">
</g>
<g id="Layer_2" class="st0">
</g>
<g id="Layer_4" class="st0">
	<rect x="-91.6" y="-70.4" class="st1" width="928.2" height="449.2"/>
	<g class="st2">
		
			<rect x="318.8" y="-14.1" transform="matrix(0.7071 0.7071 -0.7071 0.7071 89.7294 -232.2158)" class="st3" width="12.7" height="12.7"/>
		<circle class="st3" cx="449.6" cy="120.1" r="11.3"/>
		<circle class="st3" cx="-32.5" cy="346.7" r="7.4"/>
		
			<rect x="-52.6" y="-20.5" transform="matrix(0.7071 0.7071 -0.7071 0.7071 -17.2021 25.9397)" class="st3" width="25.4" height="25.4"/>
		
			<rect x="411.9" y="138.9" transform="matrix(0.7071 0.7071 -0.7071 0.7071 225.1759 -253.2097)" class="st3" width="12.7" height="12.7"/>
		<circle class="st3" cx="314.2" cy="293.2" r="2.3"/>
		<circle class="st3" cx="405.2" cy="240.4" r="2.3"/>
		
			<rect x="510.1" y="300.8" transform="matrix(0.7071 0.7071 -0.7071 0.7071 374.807 -277.8642)" class="st3" width="25.4" height="25.4"/>
		
			<rect x="777.4" y="-37.6" transform="matrix(0.7071 0.7071 -0.7071 0.7071 207.433 -563.3312)" class="st3" width="12.7" height="12.7"/>
		<circle class="st3" cx="732.4" cy="240.4" r="11.3"/>
		<circle class="st3" cx="538.1" cy="207" r="2.3"/>
		<circle class="st3" cx="551.2" cy="102.6" r="2.3"/>
		<circle class="st3" cx="685.7" cy="117.8" r="2.3"/>
		
			<rect x="617.5" y="26.3" transform="matrix(0.7071 0.7071 -0.7071 0.7071 212.1143 -434.2196)" class="st3" width="25.4" height="25.4"/>
		
			<rect x="323.5" y="69.3" transform="matrix(0.7071 0.7071 -0.7071 0.7071 150.1157 -211.0482)" class="st3" width="12.7" height="12.7"/>
		
			<rect x="-34.6" y="237.8" transform="matrix(0.7071 0.7071 -0.7071 0.7071 167.5724 90.1395)" class="st3" width="19.2" height="19.2"/>
	</g>
</g>
<g id="Layer_3">
	<g>
		<defs>
			<circle id="SVGID_1_" cx="152.6" cy="154.2" r="141.7"/>
		</defs>
		<clipPath id="SVGID_2_">
			<use xlink:href="#SVGID_1_"  style="overflow:visible;"/>
		</clipPath>
		<rect x="-128.3" y="-72" class="st4" width="626.1" height="417.9"/>
		<g class="st5">
			<path class="st6" d="M184.9,47.7H66c-9.8,0-17.7-7.9-17.7-17.7v-7.2c0-9.8,7.9-17.7,17.7-17.7h118.9c9.8,0,17.7,7.9,17.7,17.7V30
				C202.6,39.8,194.7,47.7,184.9,47.7z"/>
			<path class="st6" d="M227.2,132.9h-159c-9.8,0-17.7-7.9-17.7-17.7V108c0-9.8,7.9-17.7,17.7-17.7h159c9.8,0,17.7,7.9,17.7,17.7
				v7.2C244.9,125,237,132.9,227.2,132.9z"/>
			<path class="st6" d="M218.9,47.7H104.4c10.1,0,18.3,9.5,18.3,21.3v0c0,11.8-8.2,21.3-18.3,21.3h114.5c10.1,0,18.3-9.5,18.3-21.3
				v0C237.2,57.3,229,47.7,218.9,47.7z"/>
			<path class="st6" d="M253.6,218H68.2c-9.8,0-17.7-7.9-17.7-17.7v-7.2c0-9.8,7.9-17.7,17.7-17.7h185.4c9.8,0,17.7,7.9,17.7,17.7
				v7.2C271.3,210.1,263.4,218,253.6,218z"/>
			<path class="st6" d="M237,132.9H104.4c11.7,0,21.1,9.5,21.1,21.3v0c0,11.8-9.5,21.3-21.1,21.3H237c11.7,0,21.1-9.5,21.1-21.3v0
				C258.1,142.4,248.6,132.9,237,132.9z"/>
			<path class="st6" d="M219.5,303.2H68.2c-9.8,0-17.7-7.9-17.7-17.7v-7.2c0-9.8,7.9-17.7,17.7-17.7h151.3c9.8,0,17.7,7.9,17.7,17.7
				v7.2C237.2,295.3,229.2,303.2,219.5,303.2z"/>
			<path class="st6" d="M232.3,218H104.4c11.3,0,20.4,9.5,20.4,21.3v0c0,11.8-9.1,21.3-20.4,21.3h127.8c11.3,0,20.4-9.5,20.4-21.3v0
				C252.6,227.6,243.5,218,232.3,218z"/>
		</g>
		<g class="st5">
			<path class="st7" d="M240.7,39.8h-88.3c-8.7,0-15.8-7.1-15.8-15.8V11.9c0-8.7,7.1-15.8,15.8-15.8h88.3c8.7,0,15.8,7.1,15.8,15.8
				V24C256.5,32.7,249.4,39.8,240.7,39.8z"/>
			<path class="st7" d="M273.6,127.2H154.1c-8.7,0-15.8-7.1-15.8-15.8V99.3c0-8.7,7.1-15.8,15.8-15.8h119.5
				c8.7,0,15.8,7.1,15.8,15.8v12.1C289.4,120.2,282.3,127.2,273.6,127.2z"/>
			<path class="st7" d="M269.2,39.8h-89c7.8,0,14.2,9.8,14.2,21.9v0c0,12.1-6.3,21.9-14.2,21.9h89c7.8,0,14.2-9.8,14.2-21.9v0
				C283.4,49.6,277,39.8,269.2,39.8z"/>
			<path class="st7" d="M294.1,214.7h-140c-8.7,0-15.8-7.1-15.8-15.8v-12.1c0-8.7,7.1-15.8,15.8-15.8h140c8.7,0,15.8,7.1,15.8,15.8
				v12.1C309.9,207.6,302.8,214.7,294.1,214.7z"/>
			<path class="st7" d="M283.2,127.2h-103c9.1,0,16.4,9.8,16.4,21.9v0c0,12.1-7.4,21.9-16.4,21.9h103c9.1,0,16.4-9.8,16.4-21.9v0
				C299.7,137,292.3,127.2,283.2,127.2z"/>
			<path class="st7" d="M267.6,302.1H154.1c-8.7,0-15.8-7.1-15.8-15.8v-12.1c0-8.7,7.1-15.8,15.8-15.8h113.5
				c8.7,0,15.8,7.1,15.8,15.8v12.1C283.4,295,276.3,302.1,267.6,302.1z"/>
			<path class="st7" d="M279.6,214.7h-99.3c8.7,0,15.8,9.8,15.8,21.9v0c0,12.1-7.1,21.9-15.8,21.9h99.3c8.7,0,15.8-9.8,15.8-21.9v0
				C295.4,224.4,288.3,214.7,279.6,214.7z"/>
		</g>
		<g class="st5">
			<path class="st8" d="M349.2,47.7H231.3c-9.8,0-17.7-7.9-17.7-17.7v-7.2c0-9.8,7.9-17.7,17.7-17.7h117.9c9.8,0,17.7,7.9,17.7,17.7
				V30C366.9,39.8,359,47.7,349.2,47.7z"/>
			<path class="st8" d="M391.2,132.9H233.6c-9.8,0-17.7-7.9-17.7-17.7V108c0-9.8,7.9-17.7,17.7-17.7h157.7c9.8,0,17.7,7.9,17.7,17.7
				v7.2C408.9,125,401,132.9,391.2,132.9z"/>
			<path class="st8" d="M383.1,47.7H269.4c10,0,18.1,9.5,18.1,21.3v0c0,11.8-8.1,21.3-18.1,21.3h113.7c10,0,18.1-9.5,18.1-21.3v0
				C401.2,57.3,393.1,47.7,383.1,47.7z"/>
			<path class="st8" d="M417.4,218H233.6c-9.8,0-17.7-7.9-17.7-17.7v-7.2c0-9.8,7.9-17.7,17.7-17.7h183.9c9.8,0,17.7,7.9,17.7,17.7
				v7.2C435.1,210.1,427.2,218,417.4,218z"/>
			<path class="st8" d="M401,132.9H269.4c11.6,0,21,9.5,21,21.3v0c0,11.8-9.4,21.3-21,21.3H401c11.6,0,21-9.5,21-21.3v0
				C422,142.4,412.6,132.9,401,132.9z"/>
			<path class="st8" d="M383.5,303.2h-150c-9.8,0-17.7-7.9-17.7-17.7v-7.2c0-9.8,7.9-17.7,17.7-17.7h150c9.8,0,17.7,7.9,17.7,17.7
				v7.2C401.2,295.3,393.3,303.2,383.5,303.2z"/>
			<path class="st8" d="M396.4,218H269.4c11.2,0,20.2,9.5,20.2,21.3v0c0,11.8-9.1,21.3-20.2,21.3h126.9c11.2,0,20.2-9.5,20.2-21.3v0
				C416.6,227.6,407.5,218,396.4,218z"/>
		</g>
	</g>
</g>
</svg>
