<?xml version="1.0" encoding="utf-8"?>
<!-- Generator: Adobe Illustrator 23.0.0, SVG Export Plug-In . SVG Version: 6.00 Build 0)  -->
<svg version="1.1" xmlns="http://www.w3.org/2000/svg" xmlns:xlink="http://www.w3.org/1999/xlink" x="0px" y="0px"
	 viewBox="0 0 283.3 283.3" style="enable-background:new 0 0 283.3 283.3;" xml:space="preserve">
<style type="text/css">
	.st0{display:none;}
	.st1{display:inline;fill:#071521;}
	.st2{display:inline;}
	.st3{fill:#FFFFFF;}
	.st4{clip-path:url(#SVGID_2_);fill:#E82525;}
	.st5{clip-path:url(#SVGID_2_);fill:#FF6700;}
	.st6{clip-path:url(#SVGID_2_);fill:#FFA300;}
	.st7{clip-path:url(#SVGID_2_);fill:#FFE000;}
</style>
<g id="Layer_1" class="st0">
</g>
<g id="Layer_2" class="st0">
</g>
<g id="Layer_4" class="st0">
	<rect x="-102.5" y="-83" class="st1" width="928.2" height="449.2"/>
	<g class="st2">
		
			<rect x="307.9" y="-26.7" transform="matrix(0.7071 0.7071 -0.7071 0.7071 77.6661 -228.1358)" class="st3" width="12.7" height="12.7"/>
		<circle class="st3" cx="438.7" cy="107.6" r="11.3"/>
		<circle class="st3" cx="-43.4" cy="334.2" r="7.4"/>
		
			<rect x="-63.6" y="-33" transform="matrix(0.7071 0.7071 -0.7071 0.7071 -29.2654 30.0196)" class="st3" width="25.4" height="25.4"/>
		
			<rect x="400.9" y="126.3" transform="matrix(0.7071 0.7071 -0.7071 0.7071 213.1126 -249.1298)" class="st3" width="12.7" height="12.7"/>
		<circle class="st3" cx="303.2" cy="280.7" r="2.3"/>
		<circle class="st3" cx="394.3" cy="227.9" r="2.3"/>
		
			<rect x="499.2" y="288.3" transform="matrix(0.7071 0.7071 -0.7071 0.7071 362.7437 -273.7843)" class="st3" width="25.4" height="25.4"/>
		
			<rect x="766.4" y="-50.1" transform="matrix(0.7071 0.7071 -0.7071 0.7071 195.3698 -559.2513)" class="st3" width="12.7" height="12.7"/>
		<circle class="st3" cx="721.5" cy="227.9" r="11.3"/>
		<circle class="st3" cx="527.2" cy="194.5" r="2.3"/>
		<circle class="st3" cx="540.3" cy="90.1" r="2.3"/>
		<circle class="st3" cx="674.7" cy="105.3" r="2.3"/>
		
			<rect x="606.6" y="13.7" transform="matrix(0.7071 0.7071 -0.7071 0.7071 200.051 -430.1397)" class="st3" width="25.4" height="25.4"/>
		
			<rect x="312.5" y="56.8" transform="matrix(0.7071 0.7071 -0.7071 0.7071 138.0524 -206.9683)" class="st3" width="12.7" height="12.7"/>
		
			<rect x="-45.6" y="225.2" transform="matrix(0.7071 0.7071 -0.7071 0.7071 155.5091 94.2194)" class="st3" width="19.2" height="19.2"/>
	</g>
</g>
<g id="Layer_3">
	<g>
		<defs>
			<circle id="SVGID_1_" cx="141.7" cy="141.7" r="141.7"/>
		</defs>
		<clipPath id="SVGID_2_">
			<use xlink:href="#SVGID_1_"  style="overflow:visible;"/>
		</clipPath>
		<rect x="-139.3" y="-84.5" class="st4" width="626.1" height="417.9"/>
		<path class="st5" d="M242.7,162.9H226c11.7,0,21.1-9.5,21.1-21.3v0c0-11.8-9.5-21.3-21.1-21.3h-9.8c9.8,0,17.7-7.9,17.7-17.7v-7.2
			c0-9.8-7.9-17.7-17.7-17.7H208c10.1,0,18.3-9.5,18.3-21.3v0c0-11.8-8.2-21.3-18.3-21.3h-23c9.8,0,17.7-7.9,17.7-17.7v-7.2
			c0-9.8-7.9-17.7-17.7-17.7H55c-9.8,0-17.7,7.9-17.7,17.7v7.2c0,9.8,7.9,17.7,17.7,17.7h38.5c10.1,0,18.3,9.5,18.3,21.3v0
			c0,11.8-8.2,21.3-18.3,21.3H57.2c-9.8,0-17.7,7.9-17.7,17.7v7.2c0,9.8,7.9,17.7,17.7,17.7h36.2c11.7,0,21.1,9.5,21.1,21.3v0
			c0,11.8-9.5,21.3-21.1,21.3H57.2c-9.8,0-17.7,7.9-17.7,17.7v7.2c0,9.8,7.9,17.7,17.7,17.7h36.2c11.3,0,20.4,9.5,20.4,21.3v0
			c0,11.8-9.1,21.3-20.4,21.3H57.2c-9.8,0-17.7,7.9-17.7,17.7v7.2c0,9.8,7.9,17.7,17.7,17.7h151.3c9.8,0,17.7-7.9,17.7-17.7v-7.2
			c0-9.8-7.9-17.7-17.7-17.7h12.8c11.3,0,20.4-9.5,20.4-21.3v0c0-11.8-9.1-21.3-20.4-21.3h21.3c9.8,0,17.7-7.9,17.7-17.7v-7.2
			C260.3,170.9,252.4,162.9,242.7,162.9z"/>
		<path class="st6" d="M283.2,158.4h-10.9c9.1,0,16.4-9.8,16.4-21.9v0c0-12.1-7.4-21.9-16.4-21.9h-9.6c8.7,0,15.8-7.1,15.8-15.8
			V86.8c0-8.7-7.1-15.8-15.8-15.8h0.8c8.3,0,15-9.8,15-21.9v0c0-12.1-6.7-21.9-15-21.9h-33.7c8.7,0,15.8-7.1,15.8-15.8V-0.6
			c0-8.7-7.1-15.8-15.8-15.8h-88.3c-8.7,0-15.8,7.1-15.8,15.8v12.1c0,8.7,7.1,15.8,15.8,15.8h27.9c8.3,0,15,9.8,15,21.9v0
			c0,12.1-6.7,21.9-15,21.9h-26.1c-8.7,0-15.8,7.1-15.8,15.8v12.1c0,8.7,7.1,15.8,15.8,15.8h26.1c9.1,0,16.4,9.8,16.4,21.9v0
			c0,12.1-7.4,21.9-16.4,21.9h-26.1c-8.7,0-15.8,7.1-15.8,15.8v12.1c0,8.7,7.1,15.8,15.8,15.8h26.1c8.7,0,15.8,9.8,15.8,21.9v0
			c0,12.1-7.1,21.9-15.8,21.9h-26.1c-8.7,0-15.8,7.1-15.8,15.8v12.1c0,8.7,7.1,15.8,15.8,15.8h113.5c8.7,0,15.8-7.1,15.8-15.8v-12.1
			c0-8.7-7.1-15.8-15.8-15.8h12c8.7,0,15.8-9.8,15.8-21.9v0c0-12.1-7.1-21.9-15.8-21.9h14.6c8.7,0,15.8-7.1,15.8-15.8v-12.1
			C299,165.5,291.9,158.4,283.2,158.4z"/>
		<path class="st7" d="M406.5,162.9h-16.4c11.6,0,21-9.5,21-21.3v0c0-11.8-9.4-21.3-21-21.3h-9.8c9.8,0,17.7-7.9,17.7-17.7v-7.2
			c0-9.8-7.9-17.7-17.7-17.7h-8.1c10,0,18.1-9.5,18.1-21.3v0c0-11.8-8.1-21.3-18.1-21.3h-33.9c9.8,0,17.7-7.9,17.7-17.7v-7.2
			c0-9.8-7.9-17.7-17.7-17.7H220.4c-9.8,0-17.7,7.9-17.7,17.7v7.2c0,9.8,7.9,17.7,17.7,17.7h38.1c10,0,18.1,9.5,18.1,21.3v0
			c0,11.8-8.1,21.3-18.1,21.3h-35.9c-9.8,0-17.7,7.9-17.7,17.7v7.2c0,9.8,7.9,17.7,17.7,17.7h35.9c11.6,0,21,9.5,21,21.3v0
			c0,11.8-9.4,21.3-21,21.3h-35.9c-9.8,0-17.7,7.9-17.7,17.7v7.2c0,9.8,7.9,17.7,17.7,17.7h35.9c11.2,0,20.2,9.5,20.2,21.3v0
			c0,11.8-9.1,21.3-20.2,21.3h-35.9c-9.8,0-17.7,7.9-17.7,17.7v7.2c0,9.8,7.9,17.7,17.7,17.7h150c9.8,0,17.7-7.9,17.7-17.7v-7.2
			c0-9.8-7.9-17.7-17.7-17.7h12.8c11.2,0,20.2-9.5,20.2-21.3v0c0-11.8-9.1-21.3-20.2-21.3h21.1c9.8,0,17.7-7.9,17.7-17.7v-7.2
			C424.2,170.9,416.3,162.9,406.5,162.9z"/>
	</g>
</g>
</svg>
