<?xml version="1.0" encoding="utf-8"?>
<!-- Generator: Adobe Illustrator 23.0.0, SVG Export Plug-In . SVG Version: 6.00 Build 0)  -->
<svg version="1.1" id="Layer_1" xmlns="http://www.w3.org/2000/svg" xmlns:xlink="http://www.w3.org/1999/xlink" x="0px" y="0px"
	 viewBox="0 0 348 348" style="enable-background:new 0 0 348 348;" xml:space="preserve">
<style type="text/css">
	.st0{fill:#C4C4C4;filter:url(#Adobe_OpacityMaskFilter);}
	.st1{mask:url(#mask0_1_);}
	.st2{fill:#BEE8FF;}
	.st3{fill:#2FB9F4;}
	.st4{fill:#86FFFF;}
	.st5{fill:#0F4AE1;}
</style>
<g>
	<defs>
		<filter id="Adobe_OpacityMaskFilter" filterUnits="userSpaceOnUse" x="-22" y="-51.4" width="426.2" height="409.3">
			<feColorMatrix  type="matrix" values="1 0 0 0 0  0 1 0 0 0  0 0 1 0 0  0 0 0 1 0"/>
		</filter>
	</defs>
	<mask maskUnits="userSpaceOnUse" x="-22" y="-51.4" width="426.2" height="409.3" id="mask0_1_">
		<circle class="st0" cx="174" cy="174" r="124"/>
	</mask>
	<g class="st1">
		<path class="st2" d="M171.9,332.9c-95.4-55.1,115.1-14.2,232.3,13.1l-17.4-218.7L83.4,51.6L27.3,307.7
			C115.3,339.1,267.3,388,171.9,332.9z"/>
		<path class="st3" d="M141.9,299.9c-95.4-55.1,115.1-14.2,232.3,13.1L356.9,94.3L53.4,18.6L-2.7,274.7
			C85.3,306.1,237.3,355,141.9,299.9z"/>
		<path class="st4" d="M210.7,229.9c95.4-55.1-115.1-14.2-232.3,13.1L-4.2,24.3l303.4-75.7l56.1,256.1
			C267.4,236.1,115.3,285,210.7,229.9z"/>
		<path class="st5" d="M179,145c102.4-4.8-91.3-33.3-201-47L80-4l286,33l-55,137C224.3,161,76.6,149.8,179,145z"/>
	</g>
</g>
</svg>
