<?xml version="1.0" encoding="utf-8"?>
<!-- Generator: Adobe Illustrator 23.0.0, SVG Export Plug-In . SVG Version: 6.00 Build 0)  -->
<svg version="1.1" xmlns="http://www.w3.org/2000/svg" xmlns:xlink="http://www.w3.org/1999/xlink" x="0px" y="0px"
	 viewBox="0 0 283.3 283.3" style="enable-background:new 0 0 283.3 283.3;" xml:space="preserve">
<style type="text/css">
	.st0{display:none;}
	.st1{display:inline;fill:#071521;}
	.st2{display:inline;}
	.st3{fill:#FFFFFF;}
	.st4{clip-path:url(#SVGID_2_);fill:#E82525;}
	.st5{clip-path:url(#SVGID_2_);}
	.st6{fill:#FF6700;}
	.st7{fill:#FFA300;}
	.st8{fill:#FFE000;}
</style>
<g id="Layer_1" class="st0">
</g>
<g id="Layer_2" class="st0">
</g>
<g id="Layer_4" class="st0">
	<rect x="-102.5" y="-83" class="st1" width="928.2" height="449.2"/>
	<g class="st2">
		
			<rect x="307.9" y="-26.7" transform="matrix(0.7071 0.7071 -0.7071 0.7071 77.6661 -228.1358)" class="st3" width="12.7" height="12.7"/>
		<circle class="st3" cx="438.7" cy="107.6" r="11.3"/>
		<circle class="st3" cx="-43.4" cy="334.2" r="7.4"/>
		
			<rect x="-63.6" y="-33" transform="matrix(0.7071 0.7071 -0.7071 0.7071 -29.2654 30.0196)" class="st3" width="25.4" height="25.4"/>
		
			<rect x="400.9" y="126.3" transform="matrix(0.7071 0.7071 -0.7071 0.7071 213.1126 -249.1298)" class="st3" width="12.7" height="12.7"/>
		<circle class="st3" cx="303.2" cy="280.7" r="2.3"/>
		<circle class="st3" cx="394.3" cy="227.9" r="2.3"/>
		
			<rect x="499.2" y="288.3" transform="matrix(0.7071 0.7071 -0.7071 0.7071 362.7437 -273.7843)" class="st3" width="25.4" height="25.4"/>
		
			<rect x="766.4" y="-50.1" transform="matrix(0.7071 0.7071 -0.7071 0.7071 195.3698 -559.2513)" class="st3" width="12.7" height="12.7"/>
		<circle class="st3" cx="721.5" cy="227.9" r="11.3"/>
		<circle class="st3" cx="527.2" cy="194.5" r="2.3"/>
		<circle class="st3" cx="540.3" cy="90.1" r="2.3"/>
		<circle class="st3" cx="674.7" cy="105.3" r="2.3"/>
		
			<rect x="606.6" y="13.7" transform="matrix(0.7071 0.7071 -0.7071 0.7071 200.051 -430.1397)" class="st3" width="25.4" height="25.4"/>
		
			<rect x="312.5" y="56.8" transform="matrix(0.7071 0.7071 -0.7071 0.7071 138.0524 -206.9683)" class="st3" width="12.7" height="12.7"/>
		
			<rect x="-45.6" y="225.2" transform="matrix(0.7071 0.7071 -0.7071 0.7071 155.5091 94.2194)" class="st3" width="19.2" height="19.2"/>
	</g>
</g>
<g id="Layer_3">
	<g>
		<defs>
			<circle id="SVGID_1_" cx="141.7" cy="141.7" r="141.7"/>
		</defs>
		<clipPath id="SVGID_2_">
			<use xlink:href="#SVGID_1_"  style="overflow:visible;"/>
		</clipPath>
		<rect x="-139.3" y="-84.5" class="st4" width="626.1" height="417.9"/>
		<g class="st5">
			<path class="st6" d="M185,35.2H55c-9.8,0-17.7-7.9-17.7-17.7v-7.2c0-9.8,7.9-17.7,17.7-17.7h130c9.8,0,17.7,7.9,17.7,17.7v7.2
				C202.7,27.3,194.8,35.2,185,35.2z"/>
			<path class="st6" d="M216.3,120.4h-159c-9.8,0-17.7-7.9-17.7-17.7v-7.2c0-9.8,7.9-17.7,17.7-17.7h159c9.8,0,17.7,7.9,17.7,17.7
				v7.2C233.9,112.4,226,120.4,216.3,120.4z"/>
			<path class="st6" d="M208,35.2H93.5c10.1,0,18.3,9.5,18.3,21.3v0c0,11.8-8.2,21.3-18.3,21.3H208c10.1,0,18.3-9.5,18.3-21.3v0
				C226.2,44.7,218,35.2,208,35.2z"/>
			<path class="st6" d="M242.7,205.5H57.2c-9.8,0-17.7-7.9-17.7-17.7v-7.2c0-9.8,7.9-17.7,17.7-17.7h185.4c9.8,0,17.7,7.9,17.7,17.7
				v7.2C260.3,197.6,252.4,205.5,242.7,205.5z"/>
			<path class="st6" d="M226,120.4H93.5c11.7,0,21.1,9.5,21.1,21.3v0c0,11.8-9.5,21.3-21.1,21.3H226c11.7,0,21.1-9.5,21.1-21.3v0
				C247.1,129.9,237.7,120.4,226,120.4z"/>
			<path class="st6" d="M208.5,290.7H57.2c-9.8,0-17.7-7.9-17.7-17.7v-7.2c0-9.8,7.9-17.7,17.7-17.7h151.3c9.8,0,17.7,7.9,17.7,17.7
				v7.2C226.2,282.7,218.3,290.7,208.5,290.7z"/>
			<path class="st6" d="M221.3,205.5H93.5c11.3,0,20.4,9.5,20.4,21.3v0c0,11.8-9.1,21.3-20.4,21.3h127.8c11.3,0,20.4-9.5,20.4-21.3
				v0C241.7,215,232.6,205.5,221.3,205.5z"/>
		</g>
		<g class="st5">
			<path class="st7" d="M229.8,27.3h-88.3c-8.7,0-15.8-7.1-15.8-15.8V-0.6c0-8.7,7.1-15.8,15.8-15.8h88.3c8.7,0,15.8,7.1,15.8,15.8
				v12.1C245.5,20.2,238.5,27.3,229.8,27.3z"/>
			<path class="st7" d="M262.7,114.7H143.2c-8.7,0-15.8-7.1-15.8-15.8V86.8c0-8.7,7.1-15.8,15.8-15.8h119.5
				c8.7,0,15.8,7.1,15.8,15.8v12.1C278.4,107.6,271.4,114.7,262.7,114.7z"/>
			<path class="st7" d="M263.4,27.3h-94.1c8.3,0,15,9.8,15,21.9v0c0,12.1-6.7,21.9-15,21.9h94.1c8.3,0,15-9.8,15-21.9v0
				C278.4,37.1,271.7,27.3,263.4,27.3z"/>
			<path class="st7" d="M283.2,202.1h-140c-8.7,0-15.8-7.1-15.8-15.8v-12.1c0-8.7,7.1-15.8,15.8-15.8h140c8.7,0,15.8,7.1,15.8,15.8
				v12.1C299,195.1,291.9,202.1,283.2,202.1z"/>
			<path class="st7" d="M272.3,114.7h-103c9.1,0,16.4,9.8,16.4,21.9v0c0,12.1-7.4,21.9-16.4,21.9h103c9.1,0,16.4-9.8,16.4-21.9v0
				C288.7,124.5,281.3,114.7,272.3,114.7z"/>
			<path class="st7" d="M256.6,289.6H143.2c-8.7,0-15.8-7.1-15.8-15.8v-12.1c0-8.7,7.1-15.8,15.8-15.8h113.5
				c8.7,0,15.8,7.1,15.8,15.8v12.1C272.4,282.5,265.4,289.6,256.6,289.6z"/>
			<path class="st7" d="M268.6,202.1h-99.3c8.7,0,15.8,9.8,15.8,21.9v0c0,12.1-7.1,21.9-15.8,21.9h99.3c8.7,0,15.8-9.8,15.8-21.9v0
				C284.5,211.9,277.4,202.1,268.6,202.1z"/>
		</g>
		<g class="st5">
			<path class="st8" d="M338.2,35.2H220.4c-9.8,0-17.7-7.9-17.7-17.7v-7.2c0-9.8,7.9-17.7,17.7-17.7h117.9c9.8,0,17.7,7.9,17.7,17.7
				v7.2C355.9,27.3,348,35.2,338.2,35.2z"/>
			<path class="st8" d="M380.3,120.4H222.6c-9.8,0-17.7-7.9-17.7-17.7v-7.2c0-9.8,7.9-17.7,17.7-17.7h157.7
				c9.8,0,17.7,7.9,17.7,17.7v7.2C398,112.4,390,120.4,380.3,120.4z"/>
			<path class="st8" d="M372.2,35.2H258.5c10,0,18.1,9.5,18.1,21.3v0c0,11.8-8.1,21.3-18.1,21.3h113.7c10,0,18.1-9.5,18.1-21.3v0
				C390.3,44.7,382.2,35.2,372.2,35.2z"/>
			<path class="st8" d="M406.5,205.5H222.6c-9.8,0-17.7-7.9-17.7-17.7v-7.2c0-9.8,7.9-17.7,17.7-17.7h183.9
				c9.8,0,17.7,7.9,17.7,17.7v7.2C424.2,197.6,416.3,205.5,406.5,205.5z"/>
			<path class="st8" d="M390.1,120.4H258.5c11.6,0,21,9.5,21,21.3v0c0,11.8-9.4,21.3-21,21.3h131.6c11.6,0,21-9.5,21-21.3v0
				C411.1,129.9,401.7,120.4,390.1,120.4z"/>
			<path class="st8" d="M372.6,290.7h-150c-9.8,0-17.7-7.9-17.7-17.7v-7.2c0-9.8,7.9-17.7,17.7-17.7h150c9.8,0,17.7,7.9,17.7,17.7
				v7.2C390.3,282.7,382.4,290.7,372.6,290.7z"/>
			<path class="st8" d="M385.4,205.5H258.5c11.2,0,20.2,9.5,20.2,21.3v0c0,11.8-9.1,21.3-20.2,21.3h126.9c11.2,0,20.2-9.5,20.2-21.3
				v0C405.6,215,396.6,205.5,385.4,205.5z"/>
		</g>
	</g>
</g>
</svg>
