<svg width="295" height="284" viewBox="0 0 295 284" fill="none" xmlns="http://www.w3.org/2000/svg">
<g clip-path="url(#clip0)">
<rect x="26" y="18" width="247" height="259" fill="#C4C4C4"/>
<path d="M179 321C83.6203 265.895 262.058 287.703 379.225 315.027L361.853 96.3175L58.4022 20.6071L-16 283C71.9618 314.368 274.38 376.105 179 321Z" fill="#BEE8FF"/>
<path d="M116.949 268.936C21.5695 213.83 232.058 254.703 349.225 282.027L331.853 63.3175L28.4022 -12.3929L-27.7119 243.714C60.25 275.082 212.329 324.041 116.949 268.936Z" fill="#2FB9F4"/>
<path d="M185.729 198.936C281.108 143.83 70.6195 184.703 -46.5473 212.027L-29.1748 -6.68248L274.275 -82.3929L330.39 173.714C242.428 205.082 90.3489 254.041 185.729 198.936Z" fill="#86FFFF"/>
<path d="M143.879 111.653C251.821 106.316 47.6022 74.5941 -68 59.4L39.5206 -54L341 -17.3118L316 138C224.643 132.441 35.9366 116.989 143.879 111.653Z" fill="#0F4AE1"/>
</g>
<defs>
<clipPath id="clip0">
<rect width="295" height="284" fill="white"/>
</clipPath>
</defs>
</svg>
