<?xml version="1.0" encoding="utf-8"?>
<!-- Generator: Adobe Illustrator 23.0.0, SVG Export Plug-In . SVG Version: 6.00 Build 0)  -->
<svg version="1.1" xmlns="http://www.w3.org/2000/svg" xmlns:xlink="http://www.w3.org/1999/xlink" x="0px" y="0px"
	 viewBox="0 0 881.2 428.9" style="enable-background:new 0 0 881.2 428.9;" xml:space="preserve">
<style type="text/css">
	.st0{display:none;}
	.st1{display:none;fill:#071521;}
	.st2{fill:#FFFFFF;}
	.st3{display:inline;}
	.st4{clip-path:url(#SVGID_2_);fill:#E82525;}
	.st5{clip-path:url(#SVGID_2_);fill:#FF6700;}
	.st6{clip-path:url(#SVGID_2_);fill:#FFA300;}
	.st7{clip-path:url(#SVGID_2_);fill:#FFE000;}
</style>
<g id="Layer_1" class="st0">
</g>
<g id="Layer_2" class="st0">
</g>
<g id="Layer_4">
	<rect x="90.8" y="396" class="st1" width="928.2" height="449.2"/>
	<g>
		
			<rect x="391.9" y="37.1" transform="matrix(0.7071 0.7071 -0.7071 0.7071 147.3824 -268.8466)" class="st2" width="12.7" height="12.7"/>
		<circle class="st2" cx="522.7" cy="171.4" r="11.3"/>
		<circle class="st2" cx="40.6" cy="398" r="7.4"/>
		
			<rect x="20.4" y="30.8" transform="matrix(0.7071 0.7071 -0.7071 0.7071 40.4509 -10.6911)" class="st2" width="25.4" height="25.4"/>
		
			<rect x="484.9" y="190.1" transform="matrix(0.7071 0.7071 -0.7071 0.7071 282.8289 -289.8405)" class="st2" width="12.7" height="12.7"/>
		<circle class="st2" cx="387.2" cy="344.5" r="2.3"/>
		<circle class="st2" cx="478.3" cy="291.7" r="2.3"/>
		
			<rect x="583.2" y="352.1" transform="matrix(0.7071 0.7071 -0.7071 0.7071 432.46 -314.495)" class="st2" width="25.4" height="25.4"/>
		
			<rect x="850.4" y="13.7" transform="matrix(0.7071 0.7071 -0.7071 0.7071 265.086 -599.962)" class="st2" width="12.7" height="12.7"/>
		<circle class="st2" cx="805.5" cy="291.7" r="11.3"/>
		<circle class="st2" cx="611.2" cy="258.3" r="2.3"/>
		<circle class="st2" cx="624.3" cy="153.9" r="2.3"/>
		<circle class="st2" cx="758.7" cy="169.1" r="2.3"/>
		
			<rect x="690.6" y="77.5" transform="matrix(0.7071 0.7071 -0.7071 0.7071 269.7672 -470.8504)" class="st2" width="25.4" height="25.4"/>
		
			<rect x="396.5" y="120.6" transform="matrix(0.7071 0.7071 -0.7071 0.7071 207.7686 -247.679)" class="st2" width="12.7" height="12.7"/>
		
			<rect x="38.4" y="289" transform="matrix(0.7071 0.7071 -0.7071 0.7071 225.2254 53.5087)" class="st2" width="19.2" height="19.2"/>
	</g>
</g>
<g id="Layer_3" class="st0">
	<g class="st3">
		<defs>
			<circle id="SVGID_1_" cx="335" cy="620.6" r="141.7"/>
		</defs>
		<clipPath id="SVGID_2_">
			<use xlink:href="#SVGID_1_"  style="overflow:visible;"/>
		</clipPath>
		<rect x="54" y="394.4" class="st4" width="626.1" height="417.9"/>
		<path class="st5" d="M436,641.9h-16.6c11.7,0,21.1-9.5,21.1-21.3v0c0-11.8-9.5-21.3-21.1-21.3h-9.8c9.8,0,17.7-7.9,17.7-17.7v-7.2
			c0-9.8-7.9-17.7-17.7-17.7h-8.3c10.1,0,18.3-9.5,18.3-21.3v0c0-11.8-8.2-21.3-18.3-21.3h-23c9.8,0,17.7-7.9,17.7-17.7v-7.2
			c0-9.8-7.9-17.7-17.7-17.7h-130c-9.8,0-17.7,7.9-17.7,17.7v7.2c0,9.8,7.9,17.7,17.7,17.7h38.5c10.1,0,18.3,9.5,18.3,21.3v0
			c0,11.8-8.2,21.3-18.3,21.3h-36.2c-9.8,0-17.7,7.9-17.7,17.7v7.2c0,9.8,7.9,17.7,17.7,17.7h36.2c11.7,0,21.1,9.5,21.1,21.3v0
			c0,11.8-9.5,21.3-21.1,21.3h-36.2c-9.8,0-17.7,7.9-17.7,17.7v7.2c0,9.8,7.9,17.7,17.7,17.7h36.2c11.3,0,20.4,9.5,20.4,21.3v0
			c0,11.8-9.1,21.3-20.4,21.3h-36.2c-9.8,0-17.7,7.9-17.7,17.7v7.2c0,9.8,7.9,17.7,17.7,17.7h151.3c9.8,0,17.7-7.9,17.7-17.7v-7.2
			c0-9.8-7.9-17.7-17.7-17.7h12.8c11.3,0,20.4-9.5,20.4-21.3v0c0-11.8-9.1-21.3-20.4-21.3H436c9.8,0,17.7-7.9,17.7-17.7v-7.2
			C453.7,649.8,445.7,641.9,436,641.9z"/>
		<path class="st6" d="M476.5,637.4h-10.9c9.1,0,16.4-9.8,16.4-21.9v0c0-12.1-7.4-21.9-16.4-21.9H456c8.7,0,15.8-7.1,15.8-15.8
			v-12.1c0-8.7-7.1-15.8-15.8-15.8h0.8c8.3,0,15-9.8,15-21.9v0c0-12.1-6.7-21.9-15-21.9h-33.7c8.7,0,15.8-7.1,15.8-15.8v-12.1
			c0-8.7-7.1-15.8-15.8-15.8h-88.3c-8.7,0-15.8,7.1-15.8,15.8v12.1c0,8.7,7.1,15.8,15.8,15.8h27.9c8.3,0,15,9.8,15,21.9v0
			c0,12.1-6.7,21.9-15,21.9h-26.1c-8.7,0-15.8,7.1-15.8,15.8v12.1c0,8.7,7.1,15.8,15.8,15.8h26.1c9.1,0,16.4,9.8,16.4,21.9v0
			c0,12.1-7.4,21.9-16.4,21.9h-26.1c-8.7,0-15.8,7.1-15.8,15.8v12.1c0,8.7,7.1,15.8,15.8,15.8h26.1c8.7,0,15.8,9.8,15.8,21.9v0
			c0,12.1-7.1,21.9-15.8,21.9h-26.1c-8.7,0-15.8,7.1-15.8,15.8v12.1c0,8.7,7.1,15.8,15.8,15.8h113.5c8.7,0,15.8-7.1,15.8-15.8v-12.1
			c0-8.7-7.1-15.8-15.8-15.8h12c8.7,0,15.8-9.8,15.8-21.9v0c0-12.1-7.1-21.9-15.8-21.9h14.6c8.7,0,15.8-7.1,15.8-15.8v-12.1
			C492.3,644.4,485.2,637.4,476.5,637.4z"/>
		<path class="st7" d="M599.8,641.9h-16.4c11.6,0,21-9.5,21-21.3v0c0-11.8-9.4-21.3-21-21.3h-9.8c9.8,0,17.7-7.9,17.7-17.7v-7.2
			c0-9.8-7.9-17.7-17.7-17.7h-8.1c10,0,18.1-9.5,18.1-21.3v0c0-11.8-8.1-21.3-18.1-21.3h-33.9c9.8,0,17.7-7.9,17.7-17.7v-7.2
			c0-9.8-7.9-17.7-17.7-17.7H413.7c-9.8,0-17.7,7.9-17.7,17.7v7.2c0,9.8,7.9,17.7,17.7,17.7h38.1c10,0,18.1,9.5,18.1,21.3v0
			c0,11.8-8.1,21.3-18.1,21.3h-35.9c-9.8,0-17.7,7.9-17.7,17.7v7.2c0,9.8,7.9,17.7,17.7,17.7h35.9c11.6,0,21,9.5,21,21.3v0
			c0,11.8-9.4,21.3-21,21.3h-35.9c-9.8,0-17.7,7.9-17.7,17.7v7.2c0,9.8,7.9,17.7,17.7,17.7h35.9c11.2,0,20.2,9.5,20.2,21.3v0
			c0,11.8-9.1,21.3-20.2,21.3h-35.9c-9.8,0-17.7,7.9-17.7,17.7v7.2c0,9.8,7.9,17.7,17.7,17.7h150c9.8,0,17.7-7.9,17.7-17.7v-7.2
			c0-9.8-7.9-17.7-17.7-17.7h12.8c11.2,0,20.2-9.5,20.2-21.3v0c0-11.8-9.1-21.3-20.2-21.3h21.1c9.8,0,17.7-7.9,17.7-17.7v-7.2
			C617.5,649.8,609.6,641.9,599.8,641.9z"/>
	</g>
</g>
</svg>
